<?xml version="1.0" encoding="UTF-8" standalone="no"?>
<svg
   width="17.25"
   height="24"
   version="1.1"
   id="svg1042"
   sodipodi:docname="rokfin-greyscale.svg"
   inkscape:version="1.2.2 (732a01da63, 2022-12-09)"
   xmlns:inkscape="http://www.inkscape.org/namespaces/inkscape"
   xmlns:sodipodi="http://sodipodi.sourceforge.net/DTD/sodipodi-0.dtd"
   xmlns="http://www.w3.org/2000/svg"
   xmlns:svg="http://www.w3.org/2000/svg">
  <defs
     id="defs1046">
    <filter
       style="color-interpolation-filters:sRGB"
       inkscape:label="Greyscale"
       id="filter1377"
       x="0"
       y="0"
       width="1"
       height="1">
      <feColorMatrix
         values="0.21 0.72 0.072 -0.1 0 0.21 0.72 0.072 -0.1 0 0.21 0.72 0.072 -0.1 0 0 0 0 1 0 "
         id="feColorMatrix1375" />
    </filter>
    <filter
       style="color-interpolation-filters:sRGB"
       inkscape:label="Greyscale"
       id="filter1381"
       x="0"
       y="0"
       width="1"
       height="1">
      <feColorMatrix
         values="0.21 0.72 0.072 -0.1 0 0.21 0.72 0.072 -0.1 0 0.21 0.72 0.072 -0.1 0 0 0 0 1 0 "
         id="feColorMatrix1379" />
    </filter>
  </defs>
  <sodipodi:namedview
     id="namedview1044"
     pagecolor="#ffffff"
     bordercolor="#000000"
     borderopacity="0.25"
     inkscape:showpageshadow="2"
     inkscape:pageopacity="0.0"
     inkscape:pagecheckerboard="false"
     inkscape:deskcolor="#d1d1d1"
     showgrid="false"
     inkscape:zoom="45.254834"
     inkscape:cx="5.0933785"
     inkscape:cy="12.750019"
     inkscape:window-width="3840"
     inkscape:window-height="2137"
     inkscape:window-x="-8"
     inkscape:window-y="-8"
     inkscape:window-maximized="1"
     inkscape:current-layer="svg1042" />
  <path
     style="fill:#252935;stroke:none;filter:url(#filter1377)"
     d="m 0,1.1433102 1,3 3,-1 -4,2 C 2.341,69.02731 47.784,125.91931 109,143.58531 c 37.266,10.754 78.881,4.737 117,4.737 74.673,0 149.152,0.821 224,0.821 -0.839,-18.349 -5.043,-36.827 -11.576,-54 -2.352,-6.183 -4.477,-15.461 -10.424,-19 -0.289,-8.674 -10.347,-18.46 -15.765,-24.83 -19.507,-22.94 -48.783,-39.986 -78.235,-46.2499998 -38.88,-8.27 -81.323,-3.92 -121,-3.92 z"
     id="path14"
     transform="scale(0.0383325)" />
  <path
     style="fill:#252935;stroke:none;filter:url(#filter1381)"
     d="m 334,626.14331 c 43.345,-68.085 12.307,-161.396 -53,-201.936 -24.126,-14.976 -49.234,-28.868 -74,-42.756 -8.867,-4.973 -22.223,-11.951 -18.347,-24.308 2.361,-7.53 10.055,-11.097 17.347,-11.829 17.98,-1.806 36.926,-0.171 55,-0.171 19.915,0 41.32,1.859 61,-1.325 33.827,-5.472 61.986,-21.68 86.26,-45.336 10.958,-10.679 30.514,-34.033 29.74,-50.339 l 6.119,-16 4.881,-35 H 220 c -42.095,0 -88.319,-5.541 -128,11.225 -91.295,38.574 -119.919,157.166 -57.625,233.775 27.057,33.274 70.33,51.03 106.625,72.148 64.248,37.383 128.017,75.817 193,111.852 z"
     id="path256"
     transform="scale(0.0383325)" />
</svg>
