<?xml version="1.0" encoding="UTF-8" standalone="no"?>
<svg
   height="24.00037"
   width="22.87368"
   viewBox="46.404 -58.756 22.111365 24.269423"
   version="1.1"
   id="svg60"
   sodipodi:docname="rumble.svg"
   inkscape:version="1.2.2 (732a01da63, 2022-12-09)"
   xmlns:inkscape="http://www.inkscape.org/namespaces/inkscape"
   xmlns:sodipodi="http://sodipodi.sourceforge.net/DTD/sodipodi-0.dtd"
   xmlns="http://www.w3.org/2000/svg"
   xmlns:svg="http://www.w3.org/2000/svg">
  <defs
     id="defs64">
    <filter
       style="color-interpolation-filters:sRGB"
       inkscape:label="Greyscale"
       id="filter1278"
       x="0"
       y="0"
       width="1"
       height="1">
      <feColorMatrix
         values="0.21 0.72 0.072 -0.5 0 0.21 0.72 0.072 -0.5 0 0.21 0.72 0.072 -0.5 0 0 0 0 1 0 "
         id="feColorMatrix1276" />
    </filter>
    <filter
       style="color-interpolation-filters:sRGB"
       inkscape:label="Greyscale"
       id="filter1282"
       x="0"
       y="0"
       width="1"
       height="1">
      <feColorMatrix
         values="0.21 0.72 0.072 -0.5 0 0.21 0.72 0.072 -0.5 0 0.21 0.72 0.072 -0.5 0 0 0 0 1 0 "
         id="feColorMatrix1280" />
    </filter>
    <filter
       style="color-interpolation-filters:sRGB"
       inkscape:label="Greyscale"
       id="filter1286"
       x="0"
       y="0"
       width="1"
       height="1">
      <feColorMatrix
         values="0.21 0.72 0.072 -0.5 0 0.21 0.72 0.072 -0.5 0 0.21 0.72 0.072 -0.5 0 0 0 0 1 0 "
         id="feColorMatrix1284" />
    </filter>
    <filter
       style="color-interpolation-filters:sRGB"
       inkscape:label="Greyscale"
       id="filter1290"
       x="0"
       y="0"
       width="1"
       height="1">
      <feColorMatrix
         values="0.21 0.72 0.072 -0.5 0 0.21 0.72 0.072 -0.5 0 0.21 0.72 0.072 -0.5 0 0 0 0 1 0 "
         id="feColorMatrix1288" />
    </filter>
  </defs>
  <sodipodi:namedview
     id="namedview62"
     pagecolor="#ffffff"
     bordercolor="#000000"
     borderopacity="0.25"
     inkscape:showpageshadow="2"
     inkscape:pageopacity="0.0"
     inkscape:pagecheckerboard="0"
     inkscape:deskcolor="#d1d1d1"
     showgrid="false"
     inkscape:zoom="18.590686"
     inkscape:cx="26.599342"
     inkscape:cy="25.039421"
     inkscape:window-width="1734"
     inkscape:window-height="1458"
     inkscape:window-x="425"
     inkscape:window-y="402"
     inkscape:window-maximized="0"
     inkscape:current-layer="svg60" />
  <linearGradient
     id="a"
     gradientUnits="userSpaceOnUse"
     x1="93.492996"
     x2="1681.3101"
     y1="1244.8199"
     y2="1244.8199"
     gradientTransform="translate(-102.75993,-95.285548)">
    <stop
       offset="0"
       stop-color="#90b667"
       id="stop9" />
    <stop
       offset=".115"
       stop-color="#8cb361"
       id="stop11" />
    <stop
       offset=".267"
       stop-color="#7fab50"
       id="stop13" />
    <stop
       offset=".368"
       stop-color="#74a441"
       id="stop15" />
    <stop
       offset=".642"
       stop-color="#629032"
       id="stop17" />
    <stop
       offset="1"
       stop-color="#4e7a21"
       id="stop19" />
  </linearGradient>
  <linearGradient
     id="b"
     gradientUnits="userSpaceOnUse"
     x1="444.29901"
     x2="2405.5081"
     y1="760.12799"
     y2="760.12799"
     gradientTransform="translate(-102.75993,-95.285548)">
    <stop
       offset="0"
       stop-color="#4e7a21"
       id="stop22" />
    <stop
       offset=".072"
       stop-color="#5f8d30"
       id="stop24" />
    <stop
       offset=".161"
       stop-color="#6f9e3c"
       id="stop26" />
    <stop
       offset=".227"
       stop-color="#74a441"
       id="stop28" />
    <stop
       offset=".473"
       stop-color="#82ad53"
       id="stop30" />
    <stop
       offset=".76"
       stop-color="#8cb462"
       id="stop32" />
    <stop
       offset="1"
       stop-color="#90b667"
       id="stop34" />
  </linearGradient>
  <linearGradient
     id="c"
     gradientUnits="userSpaceOnUse"
     x1="1487.921"
     x2="1487.921"
     y1="2463.4719"
     y2="579.58002"
     gradientTransform="translate(-102.75993,-95.285548)">
    <stop
       offset="0"
       stop-color="#90b667"
       id="stop37" />
    <stop
       offset=".155"
       stop-color="#8cb361"
       id="stop39" />
    <stop
       offset=".363"
       stop-color="#7fab50"
       id="stop41" />
    <stop
       offset=".5"
       stop-color="#74a441"
       id="stop43" />
    <stop
       offset=".646"
       stop-color="#6f9e3c"
       id="stop45" />
    <stop
       offset=".841"
       stop-color="#5f8d30"
       id="stop47" />
    <stop
       offset="1"
       stop-color="#4e7a21"
       id="stop49" />
  </linearGradient>
  <path
     clip-rule="evenodd"
     d="m 725.85907,1201.6315 c 2.834,-110.609 11.832,-195.681 43.279,-277.04305 44.786,-115.875 108.106,-154.569 229.739,-128.669 159.48903,33.971 297.45203,110.766 412.57203,226.97305 12.497,12.635 23.155,27.355 33.286,42.055 49.775,72.315 53.134,123.475 -0.909,191.272 -119.289,149.617 -271.232,254.223 -457.13003,302.981 -110.799,29.066 -177.198,-10.134 -217.435,-118.447 -11.778,-31.733 -22.437,-64.547 -27.948,-97.816 -9.067,-54.64 -17.746,-109.715 -15.454,-141.306 z"
     fill="#74a441"
     fill-rule="evenodd"
     id="path52"
     style="filter:url(#filter1290)"
     transform="matrix(0.01,0,0,0.01,45.987311,-58.16844)" />
  <path
     d="m 503.96207,117.89045 c 0,0 -229.511,-0.542 -329.231,167.872 0,0 -68.239,96.447 -113.390003,276.428 0,0 -117.697,615.04805 -49.179,1075.88805 0,0 17.361,396.522 271.460003,511.699 0,0 152.523,91.405 487.214,-37.681 0,0 548.59203,-188.837 807.71203,-488.723 0,0 -442.113,287.282 -672.02603,290.064 0,0 -337.282,88.504 -411.733,-178.897 0,0 -179.438,-453.313 -123.679,-1168.65705 10e-4,0 3.764,-152.33 132.852,-447.993 z"
     fill="url(#a)"
     id="path54"
     style="fill:url(#a);filter:url(#filter1282)"
     transform="matrix(0.01,0,0,0.01,45.987311,-58.16844)" />
  <path
     d="m 2242.9471,1230.5115 c 0,0 117.379,-197.242 23.238,-368.85605 0,0 -48.248,-107.844 -180.141,-238.403 0,0 -469.342,-414.531 -900.818,-590.276998 0,0 -350.07603,-187.017002 -578.60603,-26.9880001 0,0 -156.354,84.6710001 -215.754,438.4389981 0,0 -116.889,568.29905 9.206,944.01505 0,0 -22.052,-526.78605 92.652,-726.03805 0,0 95.644,-335.34 363.674,-263.235 0,0 481.49403,76.479 1068.69203,488.808 0,-10e-4 129.194,80.82 317.857,342.53505 z"
     fill="url(#b)"
     id="path56"
     style="fill:url(#b);filter:url(#filter1286)"
     transform="matrix(0.01,0,0,0.01,45.987311,-58.16844)" />
  <path
     d="m 466.58007,2179.8435 c 0,0 122.455,194.141 318.1,188.17 0,0 117.993,5.971 294.21203,-52.276 0,0 582.44,-229.983 934.896,-534.64 0,0 325.572,-227.026 286.737,-503.3 0,0 -4.462,-177.726 -292.708,-391.27505 0,0 -457.147,-343.986 -849.173,-402.229 0,0 399.639,145.365 608.71,394.022 0,0 255.373,237.45405 69.441,443.54905 0,0 -286.737,394.265 -920.70103,730.29 0,0 -130.66,78.405 -449.514,127.689 z"
     fill="url(#c)"
     id="path58"
     style="fill:url(#c);filter:url(#filter1278)"
     transform="matrix(0.01,0,0,0.01,45.987311,-58.16844)" />
</svg>
